<svg width="22" height="22" viewBox="0 0 22 22" fill="none" xmlns="http://www.w3.org/2000/svg">
<path d="M14.6678 19.25V17.4167C14.6678 16.4442 14.2815 15.5116 13.5939 14.8239C12.9062 14.1363 11.9736 13.75 11.0011 13.75H5.50114C4.52868 13.75 3.59605 14.1363 2.90841 14.8239C2.22078 15.5116 1.83447 16.4442 1.83447 17.4167V19.25" stroke="#3B82F6" stroke-width="2.12134" stroke-linecap="round" stroke-linejoin="round"/>
<path d="M14.666 2.86719C15.4523 3.07103 16.1486 3.53018 16.6457 4.17258C17.1428 4.81498 17.4125 5.60425 17.4125 6.41652C17.4125 7.22879 17.1428 8.01806 16.6457 8.66046C16.1486 9.30286 15.4523 9.76201 14.666 9.96585" stroke="#3B82F6" stroke-width="2.12134" stroke-linecap="round" stroke-linejoin="round"/>
<path d="M20.167 19.25V17.4166C20.1664 16.6042 19.896 15.815 19.3982 15.1729C18.9005 14.5308 18.2036 14.0722 17.417 13.8691" stroke="#3B82F6" stroke-width="2.12134" stroke-linecap="round" stroke-linejoin="round"/>
<path d="M8.25114 10.0833C10.2762 10.0833 11.9178 8.44171 11.9178 6.41667C11.9178 4.39162 10.2762 2.75 8.25114 2.75C6.22609 2.75 4.58447 4.39162 4.58447 6.41667C4.58447 8.44171 6.22609 10.0833 8.25114 10.0833Z" stroke="#3B82F6" stroke-width="2.12134" stroke-linecap="round" stroke-linejoin="round"/>
</svg>
