<svg width="25" height="25" viewBox="0 0 25 25" fill="none" xmlns="http://www.w3.org/2000/svg">
<g clip-path="url(#clip0_224_2246)">
<path d="M12.4977 2.14941H12.0478C11.5053 2.14941 10.9851 2.3649 10.6015 2.74848C10.2179 3.13205 10.0024 3.65229 10.0024 4.19474V4.37882C10.0021 4.7375 9.90737 5.08977 9.72788 5.4003C9.54838 5.71083 9.29038 5.96869 8.97976 6.14803L8.54001 6.4037C8.22908 6.58321 7.87638 6.67772 7.51735 6.67772C7.15832 6.67772 6.80561 6.58321 6.49469 6.4037L6.34129 6.32188C5.87195 6.05115 5.31436 5.9777 4.79093 6.11767C4.26749 6.25763 3.82098 6.59957 3.54941 7.06843L3.32443 7.45704C3.05369 7.92638 2.98024 8.48396 3.12021 9.0074C3.26017 9.53083 3.60212 9.97735 4.07097 10.2489L4.22437 10.3512C4.5335 10.5296 4.79054 10.7859 4.96994 11.0945C5.14935 11.4031 5.24488 11.7532 5.24703 12.1102V12.6317C5.24847 12.9921 5.15464 13.3465 4.97505 13.659C4.79546 13.9715 4.5365 14.231 4.22437 14.4112L4.07097 14.5032C3.60212 14.7748 3.26017 15.2213 3.12021 15.7447C2.98024 16.2682 3.05369 16.8257 3.32443 17.2951L3.54941 17.6837C3.82098 18.1525 4.26749 18.4945 4.79093 18.6344C5.31436 18.7744 5.87195 18.701 6.34129 18.4302L6.49469 18.3484C6.80561 18.1689 7.15832 18.0744 7.51735 18.0744C7.87638 18.0744 8.22908 18.1689 8.54001 18.3484L8.97976 18.6041C9.29038 18.7834 9.54838 19.0413 9.72788 19.3518C9.90737 19.6623 10.0021 20.0146 10.0024 20.3733V20.5574C10.0024 21.0998 10.2179 21.6201 10.6015 22.0036C10.9851 22.3872 11.5053 22.6027 12.0478 22.6027H12.4977C13.0402 22.6027 13.5604 22.3872 13.944 22.0036C14.3276 21.6201 14.5431 21.0998 14.5431 20.5574V20.3733C14.5434 20.0146 14.6381 19.6623 14.8176 19.3518C14.9971 19.0413 15.2551 18.7834 15.5657 18.6041L16.0055 18.3484C16.3164 18.1689 16.6691 18.0744 17.0281 18.0744C17.3872 18.0744 17.7399 18.1689 18.0508 18.3484L18.2042 18.4302C18.6735 18.701 19.2311 18.7744 19.7545 18.6344C20.278 18.4945 20.7245 18.1525 20.9961 17.6837L21.2211 17.2848C21.4918 16.8155 21.5652 16.2579 21.4253 15.7345C21.2853 15.2111 20.9434 14.7645 20.4745 14.493L20.3211 14.4112C20.009 14.231 19.75 13.9715 19.5704 13.659C19.3908 13.3465 19.297 12.9921 19.2984 12.6317V12.1204C19.297 11.76 19.3908 11.4056 19.5704 11.0931C19.75 10.7806 20.009 10.5212 20.3211 10.341L20.4745 10.2489C20.9434 9.97735 21.2853 9.53083 21.4253 9.0074C21.5652 8.48396 21.4918 7.92638 21.2211 7.45704L20.9961 7.06843C20.7245 6.59957 20.278 6.25763 19.7545 6.11767C19.2311 5.9777 18.6735 6.05115 18.2042 6.32188L18.0508 6.4037C17.7399 6.58321 17.3872 6.67772 17.0281 6.67772C16.6691 6.67772 16.3164 6.58321 16.0055 6.4037L15.5657 6.14803C15.2551 5.96869 14.9971 5.71083 14.8176 5.4003C14.6381 5.08977 14.5434 4.7375 14.5431 4.37882V4.19474C14.5431 3.65229 14.3276 3.13205 13.944 2.74848C13.5604 2.3649 13.0402 2.14941 12.4977 2.14941Z" stroke="#2563EB" stroke-width="2.45439" stroke-linecap="round" stroke-linejoin="round"/>
<path d="M12.2721 15.4446C13.9665 15.4446 15.3401 14.071 15.3401 12.3766C15.3401 10.6822 13.9665 9.30859 12.2721 9.30859C10.5777 9.30859 9.2041 10.6822 9.2041 12.3766C9.2041 14.071 10.5777 15.4446 12.2721 15.4446Z" stroke="#2563EB" stroke-width="2.45439" stroke-linecap="round" stroke-linejoin="round"/>
</g>
<defs>
<clipPath id="clip0_224_2246">
<rect width="24.5439" height="24.5439" fill="white" transform="translate(0 0.104492)"/>
</clipPath>
</defs>
</svg>
