<svg width="24" height="24" viewBox="0 0 24 24" fill="none" xmlns="http://www.w3.org/2000/svg">
<path d="M19.9995 13.0004C19.9995 18.0004 16.4995 20.5004 12.3395 21.9504C12.1217 22.0243 11.885 22.0207 11.6695 21.9404C7.49951 20.5004 3.99951 18.0004 3.99951 13.0004V6.00045C3.99951 5.73523 4.10487 5.48088 4.29241 5.29334C4.47994 5.10581 4.7343 5.00045 4.99951 5.00045C6.99951 5.00045 9.49951 3.80045 11.2395 2.28045C11.4514 2.09945 11.7209 2 11.9995 2C12.2782 2 12.5477 2.09945 12.7595 2.28045C14.5095 3.81045 16.9995 5.00045 18.9995 5.00045C19.2647 5.00045 19.5191 5.10581 19.7066 5.29334C19.8942 5.48088 19.9995 5.73523 19.9995 6.00045V13.0004Z" stroke="#3B82F6" stroke-width="2.12134" stroke-linecap="round" stroke-linejoin="round"/>
</svg>
