<svg width="24" height="25" viewBox="0 0 24 25" fill="none" xmlns="http://www.w3.org/2000/svg">
<path d="M12.22 2.57715H11.78C11.2496 2.57715 10.7409 2.78786 10.3658 3.16293C9.99072 3.53801 9.78 4.04672 9.78 4.57715V4.75715C9.77964 5.10787 9.68706 5.45234 9.51154 5.75599C9.33602 6.05963 9.08374 6.31179 8.78 6.48715L8.35 6.73715C8.04596 6.91269 7.70108 7.0051 7.35 7.0051C6.99893 7.0051 6.65404 6.91269 6.35 6.73715L6.2 6.65715C5.74107 6.39241 5.19584 6.32059 4.684 6.45746C4.17217 6.59432 3.73555 6.92868 3.47 7.38715L3.25 7.76715C2.98526 8.22608 2.91345 8.77131 3.05031 9.28315C3.18717 9.79498 3.52154 10.2316 3.98 10.4971L4.13 10.5971C4.43228 10.7717 4.68362 11.0222 4.85905 11.324C5.03448 11.6257 5.1279 11.9681 5.13 12.3171V12.8271C5.1314 13.1796 5.03965 13.5261 4.86405 13.8317C4.68844 14.1372 4.43521 14.3909 4.13 14.5671L3.98 14.6571C3.52154 14.9227 3.18717 15.3593 3.05031 15.8712C2.91345 16.383 2.98526 16.9282 3.25 17.3871L3.47 17.7672C3.73555 18.2256 4.17217 18.56 4.684 18.6968C5.19584 18.8337 5.74107 18.7619 6.2 18.4972L6.35 18.4172C6.65404 18.2416 6.99893 18.1492 7.35 18.1492C7.70108 18.1492 8.04596 18.2416 8.35 18.4172L8.78 18.6672C9.08374 18.8425 9.33602 19.0947 9.51154 19.3983C9.68706 19.702 9.77964 20.0464 9.78 20.3972V20.5772C9.78 21.1076 9.99072 21.6163 10.3658 21.9914C10.7409 22.3664 11.2496 22.5772 11.78 22.5772H12.22C12.7504 22.5772 13.2591 22.3664 13.6342 21.9914C14.0093 21.6163 14.22 21.1076 14.22 20.5772V20.3972C14.2204 20.0464 14.3129 19.702 14.4885 19.3983C14.664 19.0947 14.9163 18.8425 15.22 18.6672L15.65 18.4172C15.954 18.2416 16.2989 18.1492 16.65 18.1492C17.0011 18.1492 17.346 18.2416 17.65 18.4172L17.8 18.4972C18.2589 18.7619 18.8042 18.8337 19.316 18.6968C19.8278 18.56 20.2645 18.2256 20.53 17.7672L20.75 17.3771C21.0147 16.9182 21.0866 16.373 20.9497 15.8612C20.8128 15.3493 20.4785 14.9127 20.02 14.6471L19.87 14.5671C19.5648 14.3909 19.3116 14.1372 19.136 13.8317C18.9604 13.5261 18.8686 13.1796 18.87 12.8271V12.3271C18.8686 11.9747 18.9604 11.6282 19.136 11.3226C19.3116 11.0171 19.5648 10.7634 19.87 10.5871L20.02 10.4971C20.4785 10.2316 20.8128 9.79498 20.9497 9.28315C21.0866 8.77131 21.0147 8.22608 20.75 7.76715L20.53 7.38715C20.2645 6.92868 19.8278 6.59432 19.316 6.45746C18.8042 6.32059 18.2589 6.39241 17.8 6.65715L17.65 6.73715C17.346 6.91269 17.0011 7.0051 16.65 7.0051C16.2989 7.0051 15.954 6.91269 15.65 6.73715L15.22 6.48715C14.9163 6.31179 14.664 6.05963 14.4885 5.75599C14.3129 5.45234 14.2204 5.10787 14.22 4.75715V4.57715C14.22 4.04672 14.0093 3.53801 13.6342 3.16293C13.2591 2.78786 12.7504 2.57715 12.22 2.57715Z" stroke="#4B5563" stroke-width="2.11929" stroke-linecap="round" stroke-linejoin="round"/>
<path d="M12 15.5771C13.6569 15.5771 15 14.234 15 12.5771C15 10.9203 13.6569 9.57715 12 9.57715C10.3431 9.57715 9 10.9203 9 12.5771C9 14.234 10.3431 15.5771 12 15.5771Z" stroke="#4B5563" stroke-width="2.11929" stroke-linecap="round" stroke-linejoin="round"/>
</svg>
