<svg width="22" height="22" viewBox="0 0 22 22" fill="none" xmlns="http://www.w3.org/2000/svg">
<g clip-path="url(#clip0_224_1938)">
<path d="M15.9058 1.80811H5.30197C4.32592 1.80811 3.53467 2.59935 3.53467 3.57541V17.7138C3.53467 18.6899 4.32592 19.4812 5.30197 19.4812H15.9058C16.8819 19.4812 17.6731 18.6899 17.6731 17.7138V3.57541C17.6731 2.59935 16.8819 1.80811 15.9058 1.80811Z" stroke="#4B5563" stroke-width="2.12077" stroke-linecap="round" stroke-linejoin="round"/>
<path d="M7.95264 19.4814V15.9468H13.2546V19.4814" stroke="#4B5563" stroke-width="2.12077" stroke-linecap="round" stroke-linejoin="round"/>
<path d="M7.06934 5.34277H7.07767" stroke="#4B5563" stroke-width="2.12077" stroke-linecap="round" stroke-linejoin="round"/>
<path d="M14.1382 5.34277H14.1465" stroke="#4B5563" stroke-width="2.12077" stroke-linecap="round" stroke-linejoin="round"/>
<path d="M10.604 5.34277H10.6123" stroke="#4B5563" stroke-width="2.12077" stroke-linecap="round" stroke-linejoin="round"/>
<path d="M10.604 8.87744H10.6123" stroke="#4B5563" stroke-width="2.12077" stroke-linecap="round" stroke-linejoin="round"/>
<path d="M10.604 12.4121H10.6123" stroke="#4B5563" stroke-width="2.12077" stroke-linecap="round" stroke-linejoin="round"/>
<path d="M14.1382 8.87744H14.1465" stroke="#4B5563" stroke-width="2.12077" stroke-linecap="round" stroke-linejoin="round"/>
<path d="M14.1382 12.4121H14.1465" stroke="#4B5563" stroke-width="2.12077" stroke-linecap="round" stroke-linejoin="round"/>
<path d="M7.06934 8.87744H7.07767" stroke="#4B5563" stroke-width="2.12077" stroke-linecap="round" stroke-linejoin="round"/>
<path d="M7.06934 12.4121H7.07767" stroke="#4B5563" stroke-width="2.12077" stroke-linecap="round" stroke-linejoin="round"/>
</g>
<defs>
<clipPath id="clip0_224_1938">
<rect width="21.2077" height="21.2077" fill="white" transform="translate(0 0.0410156)"/>
</clipPath>
</defs>
</svg>
