<svg width="21" height="22" viewBox="0 0 21 22" fill="none" xmlns="http://www.w3.org/2000/svg">
<g clip-path="url(#clip0_224_2032)">
<path d="M9.83671 2.69603C9.87411 2.62046 9.93189 2.55685 10.0035 2.51238C10.0752 2.4679 10.1578 2.44434 10.2421 2.44434C10.3264 2.44434 10.4091 2.4679 10.4807 2.51238C10.5524 2.55685 10.6101 2.62046 10.6475 2.69603L12.6191 6.68956C12.749 6.95242 12.9407 7.17982 13.1779 7.35227C13.415 7.52471 13.6904 7.63705 13.9805 7.67963L18.3897 8.32487C18.4732 8.33698 18.5517 8.37222 18.6163 8.42661C18.6808 8.481 18.7289 8.55237 18.755 8.63265C18.7811 8.71293 18.7842 8.79891 18.764 8.88088C18.7438 8.96284 18.701 9.03751 18.6406 9.09644L15.4519 12.2015C15.2416 12.4064 15.0843 12.6594 14.9934 12.9386C14.9026 13.2178 14.881 13.5149 14.9304 13.8044L15.6832 18.1914C15.6979 18.2749 15.6889 18.3608 15.6572 18.4395C15.6254 18.5181 15.5722 18.5862 15.5036 18.636C15.435 18.6859 15.3537 18.7154 15.2691 18.7213C15.1845 18.7272 15.1 18.7092 15.0252 18.6693L11.0837 16.597C10.824 16.4606 10.535 16.3894 10.2417 16.3894C9.94837 16.3894 9.65942 16.4606 9.39972 16.597L5.4591 18.6693C5.38427 18.7089 5.29983 18.7267 5.21538 18.7207C5.13093 18.7147 5.04986 18.6852 4.98139 18.6354C4.91292 18.5856 4.8598 18.5176 4.82807 18.4391C4.79634 18.3606 4.78727 18.2747 4.8019 18.1914L5.55384 13.8052C5.60351 13.5156 5.58199 13.2183 5.49114 12.9389C5.40028 12.6596 5.24283 12.4065 5.03235 12.2015L1.84366 9.09729C1.78272 9.03843 1.73953 8.96363 1.71902 8.88142C1.69851 8.79921 1.7015 8.71289 1.72765 8.6323C1.75381 8.5517 1.80207 8.48008 1.86694 8.42557C1.93182 8.37107 2.0107 8.33588 2.09459 8.32402L6.50293 7.67963C6.79334 7.63738 7.06913 7.52519 7.30657 7.35272C7.54402 7.18026 7.73599 6.95267 7.86597 6.68956L9.83671 2.69603Z" stroke="#FACC15" stroke-width="2.56051" stroke-linecap="round" stroke-linejoin="round"/>
</g>
<defs>
<clipPath id="clip0_224_2032">
<rect width="20.484" height="20.484" fill="white" transform="translate(0 0.737305)"/>
</clipPath>
</defs>
</svg>
