<svg width="22" height="21" viewBox="0 0 22 21" fill="none" xmlns="http://www.w3.org/2000/svg">
<path d="M10.7718 1.95872C10.8092 1.88316 10.867 1.81955 10.9386 1.77507C11.0102 1.7306 11.0929 1.70703 11.1772 1.70703C11.2615 1.70703 11.3441 1.7306 11.4158 1.77507C11.4874 1.81955 11.5452 1.88316 11.5826 1.95872L13.5542 5.95226C13.6841 6.21511 13.8758 6.44252 14.1129 6.61496C14.35 6.78741 14.6254 6.89974 14.9155 6.94232L19.3247 7.58757C19.4083 7.59967 19.4868 7.63491 19.5513 7.68931C19.6159 7.7437 19.6639 7.81507 19.69 7.89535C19.7161 7.97563 19.7193 8.06161 19.699 8.14357C19.6788 8.22553 19.6361 8.3002 19.5756 8.35914L16.387 11.4642C16.1767 11.6691 16.0193 11.9221 15.9285 12.2013C15.8376 12.4805 15.816 12.7776 15.8655 13.0671L16.6183 17.4541C16.633 17.5376 16.624 17.6235 16.5922 17.7022C16.5605 17.7808 16.5072 17.8489 16.4386 17.8987C16.37 17.9486 16.2888 17.9781 16.2042 17.984C16.1196 17.9899 16.0351 17.9719 15.9602 17.932L12.0187 15.8597C11.759 15.7233 11.4701 15.6521 11.1768 15.6521C10.8834 15.6521 10.5945 15.7233 10.3348 15.8597L6.39416 17.932C6.31933 17.9716 6.23489 17.9894 6.15044 17.9834C6.06599 17.9774 5.98492 17.9479 5.91645 17.8981C5.84798 17.8483 5.79486 17.7803 5.76312 17.7018C5.73139 17.6233 5.72233 17.5374 5.73696 17.4541L6.4889 13.0679C6.53857 12.7783 6.51705 12.481 6.4262 12.2016C6.33534 11.9222 6.17789 11.6691 5.96741 11.4642L2.77872 8.35999C2.71778 8.30113 2.67459 8.22633 2.65408 8.14412C2.63357 8.06191 2.63656 7.97559 2.66271 7.89499C2.68887 7.8144 2.73713 7.74277 2.802 7.68827C2.86688 7.63377 2.94575 7.59858 3.02965 7.58672L7.43799 6.94232C7.7284 6.90007 8.00419 6.78789 8.24163 6.61542C8.47907 6.44295 8.67105 6.21537 8.80103 5.95226L10.7718 1.95872Z" stroke="#D1D5DB" stroke-width="2.56051" stroke-linecap="round" stroke-linejoin="round"/>
</svg>
