<svg width="25" height="25" viewBox="0 0 25 25" fill="none" xmlns="http://www.w3.org/2000/svg">
<path d="M13.1101 3.35846C12.7195 2.98336 12.1897 2.77257 11.6372 2.77246H4.16634C3.61381 2.77246 3.0839 2.98317 2.6932 3.35825C2.3025 3.73332 2.08301 4.24203 2.08301 4.77246V11.9445C2.08313 12.4748 2.3027 12.9835 2.69342 13.3585L11.7601 22.0625C12.2335 22.5141 12.8739 22.7676 13.5413 22.7676C14.2088 22.7676 14.8491 22.5141 15.3226 22.0625L22.1768 15.4825C22.6472 15.0279 22.9113 14.4132 22.9113 13.7725C22.9113 13.1317 22.6472 12.517 22.1768 12.0625L13.1101 3.35846Z" stroke="#4B5563" stroke-width="2.12313" stroke-linecap="round" stroke-linejoin="round"/>
<path d="M7.81283 8.77246C8.10047 8.77246 8.33366 8.5486 8.33366 8.27246C8.33366 7.99632 8.10047 7.77246 7.81283 7.77246C7.52518 7.77246 7.29199 7.99632 7.29199 8.27246C7.29199 8.5486 7.52518 8.77246 7.81283 8.77246Z" fill="black" stroke="#4B5563" stroke-width="2.12313" stroke-linecap="round" stroke-linejoin="round"/>
</svg>
