<svg width="24" height="24" viewBox="0 0 24 24" fill="none" xmlns="http://www.w3.org/2000/svg">
<path d="M11.5244 2.29489C11.5682 2.20635 11.6359 2.13183 11.7198 2.07972C11.8037 2.02761 11.9006 2 11.9994 2C12.0981 2 12.195 2.02761 12.2789 2.07972C12.3628 2.13183 12.4305 2.20635 12.4744 2.29489L14.7844 6.97389C14.9365 7.28186 15.1612 7.5483 15.439 7.75035C15.7168 7.95239 16.0395 8.08401 16.3794 8.13389L21.5454 8.88989C21.6432 8.90408 21.7352 8.94537 21.8108 9.00909C21.8865 9.07282 21.9428 9.15644 21.9734 9.2505C22.004 9.34456 22.0076 9.4453 21.9839 9.54133C21.9603 9.63736 21.9102 9.72485 21.8394 9.79389L18.1034 13.4319C17.857 13.672 17.6726 13.9684 17.5662 14.2955C17.4598 14.6227 17.4344 14.9708 17.4924 15.3099L18.3744 20.4499C18.3916 20.5477 18.3811 20.6485 18.3439 20.7406C18.3066 20.8327 18.2443 20.9125 18.1639 20.9709C18.0835 21.0293 17.9883 21.0639 17.8892 21.0708C17.7901 21.0777 17.6911 21.0566 17.6034 21.0099L12.9854 18.5819C12.6811 18.4221 12.3425 18.3386 11.9989 18.3386C11.6552 18.3386 11.3166 18.4221 11.0124 18.5819L6.39536 21.0099C6.30769 21.0563 6.20876 21.0772 6.10981 21.0701C6.01086 21.0631 5.91588 21.0285 5.83565 20.9701C5.75543 20.9118 5.69319 20.8321 5.65601 20.7401C5.61884 20.6482 5.60822 20.5476 5.62536 20.4499L6.50636 15.3109C6.56455 14.9716 6.53934 14.6233 6.4329 14.2959C6.32645 13.9686 6.14197 13.672 5.89536 13.4319L2.15936 9.79489C2.08795 9.72593 2.03735 9.63829 2.01332 9.54197C1.98929 9.44565 1.9928 9.34451 2.02344 9.25008C2.05408 9.15566 2.11063 9.07174 2.18664 9.00788C2.26264 8.94402 2.35506 8.90279 2.45336 8.88889L7.61836 8.13389C7.95861 8.08439 8.28175 7.95295 8.55994 7.75088C8.83814 7.54881 9.06306 7.28216 9.21536 6.97389L11.5244 2.29489Z" stroke="#EAB308" stroke-width="2.12313" stroke-linecap="round" stroke-linejoin="round"/>
</svg>
