<svg width="35" height="35" viewBox="0 0 35 35" fill="none" xmlns="http://www.w3.org/2000/svg">
<path d="M17.7283 11.8947V17.6331L22.0321 21.9369M30.6397 17.6331C30.6397 19.3286 30.3057 21.0076 29.6569 22.574C29.008 24.1405 28.057 25.5639 26.858 26.7628C25.6591 27.9617 24.2357 28.9128 22.6693 29.5616C21.1028 30.2105 19.4238 30.5445 17.7283 30.5445C16.0327 30.5445 14.3538 30.2105 12.7873 29.5616C11.2208 28.9128 9.79749 27.9617 8.59855 26.7628C7.39962 25.5639 6.44857 24.1405 5.79972 22.574C5.15086 21.0076 4.81689 19.3286 4.81689 17.6331C4.81689 14.2088 6.1772 10.9247 8.59855 8.50334C11.0199 6.08198 14.304 4.72168 17.7283 4.72168C21.1526 4.72168 24.4367 6.08198 26.858 8.50334C29.2794 10.9247 30.6397 14.2088 30.6397 17.6331Z" stroke="#007BFF" stroke-width="1.07595" stroke-linecap="round" stroke-linejoin="round"/>
</svg>
