<svg width="35" height="35" viewBox="0 0 35 35" fill="none" xmlns="http://www.w3.org/2000/svg">
<path d="M4.58887 14.7633H30.4117M10.3273 21.9363H11.7619M17.5003 21.9363H18.9349M8.89266 27.6747H26.1079C27.2493 27.6747 28.344 27.2213 29.1511 26.4142C29.9582 25.607 30.4117 24.5124 30.4117 23.3709V11.8941C30.4117 10.7527 29.9582 9.658 29.1511 8.85089C28.344 8.04377 27.2493 7.59033 26.1079 7.59033H8.89266C7.75123 7.59033 6.65654 8.04377 5.84942 8.85089C5.0423 9.658 4.58887 10.7527 4.58887 11.8941V23.3709C4.58887 24.5124 5.0423 25.607 5.84942 26.4142C6.65654 27.2213 7.75123 27.6747 8.89266 27.6747Z" stroke="#007BFF" stroke-width="1.07595" stroke-linecap="round" stroke-linejoin="round"/>
</svg>
