<svg width="28" height="28" viewBox="0 0 28 28" fill="none" xmlns="http://www.w3.org/2000/svg">
<g clip-path="url(#clip0_10_5241)">
<path d="M23.164 11.7475C23.164 17.4335 16.8562 23.3552 14.7381 25.1841C14.5408 25.3325 14.3006 25.4127 14.0537 25.4127C13.8068 25.4127 13.5666 25.3325 13.3693 25.1841C11.2511 23.3552 4.94336 17.4335 4.94336 11.7475C4.94336 9.33132 5.90319 7.01407 7.61171 5.30556C9.32023 3.59704 11.6375 2.63721 14.0537 2.63721C16.4699 2.63721 18.7871 3.59704 20.4956 5.30556C22.2042 7.01407 23.164 9.33132 23.164 11.7475Z" stroke="#4B5563" stroke-width="3.41637" stroke-linecap="round" stroke-linejoin="round"/>
<path d="M14.0536 15.1633C15.9404 15.1633 17.4699 13.6337 17.4699 11.7469C17.4699 9.86013 15.9404 8.33057 14.0536 8.33057C12.1668 8.33057 10.6372 9.86013 10.6372 11.7469C10.6372 13.6337 12.1668 15.1633 14.0536 15.1633Z" stroke="#4B5563" stroke-width="3.41637" stroke-linecap="round" stroke-linejoin="round"/>
</g>
<defs>
<clipPath id="clip0_10_5241">
<rect width="27.331" height="27.331" fill="white" transform="translate(0.387695 0.358887)"/>
</clipPath>
</defs>
</svg>
