<svg width="35" height="35" viewBox="0 0 35 35" fill="none" xmlns="http://www.w3.org/2000/svg">
<path d="M26.2502 2.91699H8.75016C7.13933 2.91699 5.8335 4.22283 5.8335 5.83366V29.167C5.8335 30.7778 7.13933 32.0837 8.75016 32.0837H26.2502C27.861 32.0837 29.1668 30.7778 29.1668 29.167V5.83366C29.1668 4.22283 27.861 2.91699 26.2502 2.91699Z" stroke="#6366F1" stroke-width="3" stroke-linecap="round" stroke-linejoin="round"/>
<path d="M13.125 32.0833V26.25H21.875V32.0833" stroke="#6366F1" stroke-width="3" stroke-linecap="round" stroke-linejoin="round"/>
<path d="M11.6665 8.75H11.6818" stroke="#6366F1" stroke-width="3" stroke-linecap="round" stroke-linejoin="round"/>
<path d="M23.3335 8.75H23.3488" stroke="#6366F1" stroke-width="3" stroke-linecap="round" stroke-linejoin="round"/>
<path d="M17.5 8.75H17.5153" stroke="#6366F1" stroke-width="3" stroke-linecap="round" stroke-linejoin="round"/>
<path d="M17.5 14.583H17.5153" stroke="#6366F1" stroke-width="3" stroke-linecap="round" stroke-linejoin="round"/>
<path d="M17.5 20.417H17.5153" stroke="#6366F1" stroke-width="3" stroke-linecap="round" stroke-linejoin="round"/>
<path d="M23.3335 14.583H23.3488" stroke="#6366F1" stroke-width="3" stroke-linecap="round" stroke-linejoin="round"/>
<path d="M23.3335 20.417H23.3488" stroke="#6366F1" stroke-width="3" stroke-linecap="round" stroke-linejoin="round"/>
<path d="M11.6665 14.583H11.6818" stroke="#6366F1" stroke-width="3" stroke-linecap="round" stroke-linejoin="round"/>
<path d="M11.6665 20.417H11.6818" stroke="#6366F1" stroke-width="3" stroke-linecap="round" stroke-linejoin="round"/>
</svg>
