<svg width="35" height="35" viewBox="0 0 35 35" fill="none" xmlns="http://www.w3.org/2000/svg">
<path d="M23.3332 30.625V27.7083C23.3332 26.1612 22.7186 24.6775 21.6246 23.5835C20.5307 22.4896 19.0469 21.875 17.4998 21.875H8.74984C7.20274 21.875 5.71901 22.4896 4.62505 23.5835C3.53109 24.6775 2.9165 26.1612 2.9165 27.7083V30.625" stroke="#F97316" stroke-width="3" stroke-linecap="round" stroke-linejoin="round"/>
<path d="M21.3335 4.56152C22.5844 4.88581 23.6922 5.61628 24.483 6.63828C25.2739 7.66028 25.703 8.91595 25.703 10.2082C25.703 11.5004 25.2739 12.7561 24.483 13.7781C23.6922 14.8001 22.5844 15.5306 21.3335 15.8549" stroke="#F97316" stroke-width="3" stroke-linecap="round" stroke-linejoin="round"/>
<path d="M30.0835 30.6249V27.7082C30.0825 26.4157 29.6523 25.1602 28.8605 24.1387C28.0686 23.1172 26.9599 22.3876 25.7085 22.0645" stroke="#F97316" stroke-width="3" stroke-linecap="round" stroke-linejoin="round"/>
<path d="M13.1248 16.0417C16.3465 16.0417 18.9582 13.43 18.9582 10.2083C18.9582 6.98667 16.3465 4.375 13.1248 4.375C9.90318 4.375 7.2915 6.98667 7.2915 10.2083C7.2915 13.43 9.90318 16.0417 13.1248 16.0417Z" stroke="#F97316" stroke-width="3" stroke-linecap="round" stroke-linejoin="round"/>
</svg>
