<svg width="22" height="22" viewBox="0 0 22 22" fill="none" xmlns="http://www.w3.org/2000/svg">
<path d="M14.1287 18.5438V16.7778C14.1287 15.841 13.7565 14.9426 13.0941 14.2802C12.4317 13.6177 11.5333 13.2456 10.5965 13.2456H5.29827C4.36148 13.2456 3.46307 13.6177 2.80066 14.2802C2.13825 14.9426 1.76611 15.841 1.76611 16.7778V18.5438" stroke="#4B5563" stroke-width="2.11929" stroke-linecap="round" stroke-linejoin="round"/>
<path d="M14.1284 2.76221C14.8858 2.95857 15.5566 3.40088 16.0355 4.01971C16.5144 4.63854 16.7742 5.39886 16.7742 6.18133C16.7742 6.9638 16.5144 7.72413 16.0355 8.34296C15.5566 8.96179 14.8858 9.4041 14.1284 9.60046" stroke="#4B5563" stroke-width="2.11929" stroke-linecap="round" stroke-linejoin="round"/>
<path d="M19.4269 18.5438V16.7777C19.4264 15.9951 19.1659 15.2348 18.6864 14.6163C18.2069 13.9978 17.5356 13.556 16.7778 13.3604" stroke="#4B5563" stroke-width="2.11929" stroke-linecap="round" stroke-linejoin="round"/>
<path d="M7.94719 9.71324C9.89795 9.71324 11.4793 8.13184 11.4793 6.18108C11.4793 4.23033 9.89795 2.64893 7.94719 2.64893C5.99644 2.64893 4.41504 4.23033 4.41504 6.18108C4.41504 8.13184 5.99644 9.71324 7.94719 9.71324Z" stroke="#4B5563" stroke-width="2.11929" stroke-linecap="round" stroke-linejoin="round"/>
</svg>
