<svg width="35" height="36" viewBox="0 0 35 36" fill="none" xmlns="http://www.w3.org/2000/svg">
<path d="M5.8335 28.7406V6.86556C5.8335 5.89862 6.21761 4.97129 6.90134 4.28757C7.58506 3.60384 8.51239 3.21973 9.47933 3.21973H27.7085C28.0953 3.21973 28.4662 3.37337 28.7397 3.64686C29.0132 3.92035 29.1668 4.29129 29.1668 4.67806V30.9281C29.1668 31.3148 29.0132 31.6858 28.7397 31.9593C28.4662 32.2327 28.0953 32.3864 27.7085 32.3864H9.47933C8.51239 32.3864 7.58506 32.0023 6.90134 31.3186C6.21761 30.6348 5.8335 29.7075 5.8335 28.7406ZM5.8335 28.7406C5.8335 27.7736 6.21761 26.8463 6.90134 26.1626C7.58506 25.4788 8.51239 25.0947 9.47933 25.0947H29.1668" stroke="#14B8A6" stroke-width="3" stroke-linecap="round" stroke-linejoin="round"/>
</svg>
