<svg width="24" height="25" viewBox="0 0 24 25" fill="none" xmlns="http://www.w3.org/2000/svg">
<path d="M12.5861 2.83112C12.2111 2.45602 11.7024 2.24523 11.1721 2.24512H4.00006C3.46963 2.24512 2.96092 2.45583 2.58585 2.8309C2.21077 3.20598 2.00006 3.71468 2.00006 4.24512V11.4171C2.00017 11.9475 2.21096 12.4561 2.58606 12.8311L11.2901 21.5351C11.7446 21.9868 12.3593 22.2402 13.0001 22.2402C13.6408 22.2402 14.2555 21.9868 14.7101 21.5351L21.2901 14.9551C21.7417 14.5006 21.9952 13.8859 21.9952 13.2451C21.9952 12.6044 21.7417 11.9896 21.2901 11.5351L12.5861 2.83112Z" stroke="#4B5563" stroke-width="2.11929" stroke-linecap="round" stroke-linejoin="round"/>
<path d="M7.5 8.24512C7.77614 8.24512 8 8.02126 8 7.74512C8 7.46897 7.77614 7.24512 7.5 7.24512C7.22386 7.24512 7 7.46897 7 7.74512C7 8.02126 7.22386 8.24512 7.5 8.24512Z" fill="black" stroke="#4B5563" stroke-width="2.11929" stroke-linecap="round" stroke-linejoin="round"/>
</svg>
