<svg width="22" height="22" viewBox="0 0 22 22" fill="none" xmlns="http://www.w3.org/2000/svg">
<path d="M14.1386 18.5978V16.8305C14.1386 15.8931 13.7662 14.994 13.1033 14.3312C12.4405 13.6683 11.5414 13.2959 10.604 13.2959H5.30207C4.36463 13.2959 3.46559 13.6683 2.80272 14.3312C2.13985 14.994 1.76746 15.8931 1.76746 16.8305V18.5978" stroke="#2563EB" stroke-width="2.12077" stroke-linecap="round" stroke-linejoin="round"/>
<path d="M14.1383 2.80518C14.8963 3.00167 15.5675 3.44429 16.0467 4.06355C16.5259 4.68281 16.7859 5.44366 16.7859 6.22668C16.7859 7.00969 16.5259 7.77054 16.0467 8.3898C15.5675 9.00907 14.8963 9.45168 14.1383 9.64818" stroke="#2563EB" stroke-width="2.12077" stroke-linecap="round" stroke-linejoin="round"/>
<path d="M19.4403 18.5977V16.8304C19.4397 16.0472 19.179 15.2864 18.6992 14.6675C18.2194 14.0485 17.5476 13.6064 16.7893 13.4106" stroke="#2563EB" stroke-width="2.12077" stroke-linecap="round" stroke-linejoin="round"/>
<path d="M7.95282 9.76111C9.90493 9.76111 11.4874 8.17862 11.4874 6.2265C11.4874 4.27439 9.90493 2.69189 7.95282 2.69189C6.00071 2.69189 4.41821 4.27439 4.41821 6.2265C4.41821 8.17862 6.00071 9.76111 7.95282 9.76111Z" stroke="#2563EB" stroke-width="2.12077" stroke-linecap="round" stroke-linejoin="round"/>
</svg>
