<svg width="24" height="25" viewBox="0 0 24 25" fill="none" xmlns="http://www.w3.org/2000/svg">
<path d="M12.2201 2.24414H11.7801C11.2496 2.24414 10.7409 2.45485 10.3658 2.82993C9.99078 3.205 9.78006 3.71371 9.78006 4.24414V4.42414C9.7797 4.77487 9.68712 5.11933 9.5116 5.42298C9.33608 5.72663 9.0838 5.97878 8.78006 6.15414L8.35006 6.40414C8.04602 6.57968 7.70114 6.67209 7.35006 6.67209C6.99899 6.67209 6.6541 6.57968 6.35006 6.40414L6.20006 6.32414C5.74113 6.0594 5.1959 5.98758 4.68406 6.12445C4.17223 6.26131 3.73561 6.59568 3.47006 7.05414L3.25006 7.43414C2.98533 7.89308 2.91351 8.4383 3.05037 8.95014C3.18724 9.46198 3.5216 9.89859 3.98006 10.1641L4.13006 10.2641C4.43234 10.4387 4.68368 10.6892 4.85911 10.991C5.03455 11.2927 5.12796 11.6351 5.13006 11.9841V12.4941C5.13146 12.8466 5.03971 13.1931 4.86411 13.4986C4.6885 13.8042 4.43527 14.0579 4.13006 14.2341L3.98006 14.3241C3.5216 14.5897 3.18724 15.0263 3.05037 15.5381C2.91351 16.05 2.98533 16.5952 3.25006 17.0541L3.47006 17.4341C3.73561 17.8926 4.17223 18.227 4.68406 18.3638C5.1959 18.5007 5.74113 18.4289 6.20006 18.1641L6.35006 18.0841C6.6541 17.9086 6.99899 17.8162 7.35006 17.8162C7.70114 17.8162 8.04602 17.9086 8.35006 18.0841L8.78006 18.3341C9.0838 18.5095 9.33608 18.7617 9.5116 19.0653C9.68712 19.369 9.7797 19.7134 9.78006 20.0641V20.2441C9.78006 20.7746 9.99078 21.2833 10.3658 21.6584C10.7409 22.0334 11.2496 22.2441 11.7801 22.2441H12.2201C12.7505 22.2441 13.2592 22.0334 13.6343 21.6584C14.0093 21.2833 14.2201 20.7746 14.2201 20.2441V20.0641C14.2204 19.7134 14.313 19.369 14.4885 19.0653C14.664 18.7617 14.9163 18.5095 15.2201 18.3341L15.6501 18.0841C15.9541 17.9086 16.299 17.8162 16.6501 17.8162C17.0011 17.8162 17.346 17.9086 17.6501 18.0841L17.8001 18.1641C18.259 18.4289 18.8042 18.5007 19.3161 18.3638C19.8279 18.227 20.2645 17.8926 20.5301 17.4341L20.7501 17.0441C21.0148 16.5852 21.0866 16.04 20.9498 15.5281C20.8129 15.0163 20.4785 14.5797 20.0201 14.3141L19.8701 14.2341C19.5649 14.0579 19.3116 13.8042 19.136 13.4986C18.9604 13.1931 18.8687 12.8466 18.8701 12.4941V11.9941C18.8687 11.6417 18.9604 11.2952 19.136 10.9896C19.3116 10.6841 19.5649 10.4304 19.8701 10.2541L20.0201 10.1641C20.4785 9.89859 20.8129 9.46198 20.9498 8.95014C21.0866 8.4383 21.0148 7.89308 20.7501 7.43414L20.5301 7.05414C20.2645 6.59568 19.8279 6.26131 19.3161 6.12445C18.8042 5.98758 18.259 6.0594 17.8001 6.32414L17.6501 6.40414C17.346 6.57968 17.0011 6.67209 16.6501 6.67209C16.299 6.67209 15.9541 6.57968 15.6501 6.40414L15.2201 6.15414C14.9163 5.97878 14.664 5.72663 14.4885 5.42298C14.313 5.11933 14.2204 4.77487 14.2201 4.42414V4.24414C14.2201 3.71371 14.0093 3.205 13.6343 2.82993C13.2592 2.45485 12.7505 2.24414 12.2201 2.24414Z" stroke="#4B5563" stroke-width="2.11929" stroke-linecap="round" stroke-linejoin="round"/>
<path d="M12.0001 15.2441C13.6569 15.2441 15.0001 13.901 15.0001 12.2441C15.0001 10.5873 13.6569 9.24414 12.0001 9.24414C10.3432 9.24414 9.00006 10.5873 9.00006 12.2441C9.00006 13.901 10.3432 15.2441 12.0001 15.2441Z" stroke="#4B5563" stroke-width="2.11929" stroke-linecap="round" stroke-linejoin="round"/>
</svg>
