<svg width="22" height="23" viewBox="0 0 22 23" fill="none" xmlns="http://www.w3.org/2000/svg">
<path d="M7.96175 3.48242H3.53857C3.05 3.48242 2.65393 3.87849 2.65393 4.36706V10.5595C2.65393 11.0481 3.05 11.4442 3.53857 11.4442H7.96175C8.45032 11.4442 8.84639 11.0481 8.84639 10.5595V4.36706C8.84639 3.87849 8.45032 3.48242 7.96175 3.48242Z" stroke="#4B5563" stroke-width="2.12313" stroke-linecap="round" stroke-linejoin="round"/>
<path d="M17.6927 3.48242H13.2695C12.781 3.48242 12.3849 3.87849 12.3849 4.36706V7.02097C12.3849 7.50954 12.781 7.90561 13.2695 7.90561H17.6927C18.1813 7.90561 18.5773 7.50954 18.5773 7.02097V4.36706C18.5773 3.87849 18.1813 3.48242 17.6927 3.48242Z" stroke="#4B5563" stroke-width="2.12313" stroke-linecap="round" stroke-linejoin="round"/>
<path d="M17.6927 11.4443H13.2695C12.781 11.4443 12.3849 11.8404 12.3849 12.329V18.5214C12.3849 19.01 12.781 19.4061 13.2695 19.4061H17.6927C18.1813 19.4061 18.5773 19.01 18.5773 18.5214V12.329C18.5773 11.8404 18.1813 11.4443 17.6927 11.4443Z" stroke="#4B5563" stroke-width="2.12313" stroke-linecap="round" stroke-linejoin="round"/>
<path d="M7.96175 14.9829H3.53857C3.05 14.9829 2.65393 15.379 2.65393 15.8675V18.5215C2.65393 19.01 3.05 19.4061 3.53857 19.4061H7.96175C8.45032 19.4061 8.84639 19.01 8.84639 18.5215V15.8675C8.84639 15.379 8.45032 14.9829 7.96175 14.9829Z" stroke="#4B5563" stroke-width="2.12313" stroke-linecap="round" stroke-linejoin="round"/>
</svg>
