<svg width="22" height="22" viewBox="0 0 22 22" fill="none" xmlns="http://www.w3.org/2000/svg">
<path d="M14.1287 18.7177V16.9516C14.1287 16.0148 13.7565 15.1164 13.0941 14.454C12.4317 13.7916 11.5333 13.4194 10.5965 13.4194H5.29827C4.36148 13.4194 3.46307 13.7916 2.80066 14.454C2.13825 15.1164 1.76611 16.0148 1.76611 16.9516V18.7177" stroke="#4B5563" stroke-width="2.11929" stroke-linecap="round" stroke-linejoin="round"/>
<path d="M14.1287 2.93604C14.8861 3.1324 15.5569 3.57471 16.0357 4.19354C16.5146 4.81237 16.7744 5.57269 16.7744 6.35516C16.7744 7.13763 16.5146 7.89795 16.0357 8.51679C15.5569 9.13562 14.8861 9.57793 14.1287 9.77429" stroke="#4B5563" stroke-width="2.11929" stroke-linecap="round" stroke-linejoin="round"/>
<path d="M19.4269 18.7176V16.9515C19.4264 16.1689 19.1659 15.4087 18.6864 14.7901C18.2069 14.1716 17.5356 13.7298 16.7778 13.5342" stroke="#4B5563" stroke-width="2.11929" stroke-linecap="round" stroke-linejoin="round"/>
<path d="M7.94744 9.88706C9.89819 9.88706 11.4796 8.30566 11.4796 6.35491C11.4796 4.40415 9.89819 2.82275 7.94744 2.82275C5.99668 2.82275 4.41528 4.40415 4.41528 6.35491C4.41528 8.30566 5.99668 9.88706 7.94744 9.88706Z" stroke="#4B5563" stroke-width="2.11929" stroke-linecap="round" stroke-linejoin="round"/>
</svg>
