<svg width="24" height="25" viewBox="0 0 24 25" fill="none" xmlns="http://www.w3.org/2000/svg">
<path d="M12.22 2.17383H11.78C11.2496 2.17383 10.7409 2.38454 10.3658 2.75961C9.99072 3.13469 9.78 3.6434 9.78 4.17383V4.35383C9.77964 4.70455 9.68706 5.04902 9.51154 5.35267C9.33602 5.65631 9.08374 5.90847 8.78 6.08383L8.35 6.33383C8.04596 6.50937 7.70108 6.60178 7.35 6.60178C6.99893 6.60178 6.65404 6.50937 6.35 6.33383L6.2 6.25383C5.74107 5.98909 5.19584 5.91727 4.684 6.05414C4.17217 6.191 3.73555 6.52536 3.47 6.98383L3.25 7.36383C2.98526 7.82276 2.91345 8.36799 3.05031 8.87983C3.18717 9.39166 3.52154 9.82828 3.98 10.0938L4.13 10.1938C4.43228 10.3683 4.68362 10.6189 4.85905 10.9207C5.03448 11.2224 5.1279 11.5648 5.13 11.9138V12.4238C5.1314 12.7762 5.03965 13.1228 4.86405 13.4283C4.68844 13.7339 4.43521 13.9876 4.13 14.1638L3.98 14.2538C3.52154 14.5194 3.18717 14.956 3.05031 15.4678C2.91345 15.9797 2.98526 16.5249 3.25 16.9838L3.47 17.3638C3.73555 17.8223 4.17217 18.1567 4.684 18.2935C5.19584 18.4304 5.74107 18.3586 6.2 18.0938L6.35 18.0138C6.65404 17.8383 6.99893 17.7459 7.35 17.7459C7.70108 17.7459 8.04596 17.8383 8.35 18.0138L8.78 18.2638C9.08374 18.4392 9.33602 18.6913 9.51154 18.995C9.68706 19.2986 9.77964 19.6431 9.78 19.9938V20.1738C9.78 20.7043 9.99072 21.213 10.3658 21.588C10.7409 21.9631 11.2496 22.1738 11.78 22.1738H12.22C12.7504 22.1738 13.2591 21.9631 13.6342 21.588C14.0093 21.213 14.22 20.7043 14.22 20.1738V19.9938C14.2204 19.6431 14.3129 19.2986 14.4885 18.995C14.664 18.6913 14.9163 18.4392 15.22 18.2638L15.65 18.0138C15.954 17.8383 16.2989 17.7459 16.65 17.7459C17.0011 17.7459 17.346 17.8383 17.65 18.0138L17.8 18.0938C18.2589 18.3586 18.8042 18.4304 19.316 18.2935C19.8278 18.1567 20.2645 17.8223 20.53 17.3638L20.75 16.9738C21.0147 16.5149 21.0866 15.9697 20.9497 15.4578C20.8128 14.946 20.4785 14.5094 20.02 14.2438L19.87 14.1638C19.5648 13.9876 19.3116 13.7339 19.136 13.4283C18.9604 13.1228 18.8686 12.7762 18.87 12.4238V11.9238C18.8686 11.5714 18.9604 11.2249 19.136 10.9193C19.3116 10.6138 19.5648 10.36 19.87 10.1838L20.02 10.0938C20.4785 9.82828 20.8128 9.39166 20.9497 8.87983C21.0866 8.36799 21.0147 7.82276 20.75 7.36383L20.53 6.98383C20.2645 6.52536 19.8278 6.191 19.316 6.05414C18.8042 5.91727 18.2589 5.98909 17.8 6.25383L17.65 6.33383C17.346 6.50937 17.0011 6.60178 16.65 6.60178C16.2989 6.60178 15.954 6.50937 15.65 6.33383L15.22 6.08383C14.9163 5.90847 14.664 5.65631 14.4885 5.35267C14.3129 5.04902 14.2204 4.70455 14.22 4.35383V4.17383C14.22 3.6434 14.0093 3.13469 13.6342 2.75961C13.2591 2.38454 12.7504 2.17383 12.22 2.17383Z" stroke="#4B5563" stroke-width="2.11929" stroke-linecap="round" stroke-linejoin="round"/>
<path d="M12 15.1738C13.6569 15.1738 15 13.8307 15 12.1738C15 10.517 13.6569 9.17383 12 9.17383C10.3431 9.17383 9 10.517 9 12.1738C9 13.8307 10.3431 15.1738 12 15.1738Z" stroke="#4B5563" stroke-width="2.11929" stroke-linecap="round" stroke-linejoin="round"/>
</svg>
