<svg width="24" height="25" viewBox="0 0 24 25" fill="none" xmlns="http://www.w3.org/2000/svg">
<path d="M12.586 2.75983C12.211 2.38473 11.7024 2.17394 11.172 2.17383H4C3.46957 2.17383 2.96086 2.38454 2.58579 2.75961C2.21071 3.13469 2 3.64339 2 4.17383V11.3458C2.00011 11.8762 2.2109 12.3848 2.586 12.7598L11.29 21.4638C11.7445 21.9155 12.3592 22.169 13 22.169C13.6408 22.169 14.2555 21.9155 14.71 21.4638L21.29 14.8838C21.7416 14.4293 21.9951 13.8146 21.9951 13.1738C21.9951 12.5331 21.7416 11.9183 21.29 11.4638L12.586 2.75983Z" stroke="#4B5563" stroke-width="2.11929" stroke-linecap="round" stroke-linejoin="round"/>
<path d="M7.5 8.17383C7.77614 8.17383 8 7.94997 8 7.67383C8 7.39769 7.77614 7.17383 7.5 7.17383C7.22386 7.17383 7 7.39769 7 7.67383C7 7.94997 7.22386 8.17383 7.5 8.17383Z" fill="black" stroke="#4B5563" stroke-width="2.11929" stroke-linecap="round" stroke-linejoin="round"/>
</svg>
