<svg width="22" height="22" viewBox="0 0 22 22" fill="none" xmlns="http://www.w3.org/2000/svg">
<g clip-path="url(#clip0_224_1429)">
<path d="M9.31897 18.7827C9.47398 19.0512 9.69692 19.2741 9.96539 19.4291C10.2339 19.5841 10.5384 19.6657 10.8484 19.6657C11.1584 19.6657 11.4629 19.5841 11.7314 19.4291C11.9999 19.2741 12.2228 19.0512 12.3778 18.7827" stroke="#4B5563" stroke-width="2.11929" stroke-linecap="round" stroke-linejoin="round"/>
<path d="M3.13244 13.7723C3.01709 13.8987 2.94096 14.0559 2.91332 14.2248C2.88569 14.3937 2.90773 14.567 2.97677 14.7236C3.04581 14.8802 3.15888 15.0134 3.30221 15.1069C3.44555 15.2005 3.61298 15.2503 3.78413 15.2505H17.9127C18.0839 15.2505 18.2513 15.2009 18.3948 15.1075C18.5382 15.0142 18.6514 14.8811 18.7206 14.7246C18.7899 14.5681 18.8121 14.3949 18.7847 14.226C18.7573 14.057 18.6814 13.8997 18.5662 13.7731C17.3918 12.5625 16.1467 11.2759 16.1467 7.30312C16.1467 5.89794 15.5885 4.55031 14.5949 3.5567C13.6012 2.56309 12.2536 2.00488 10.8484 2.00488C9.44326 2.00488 8.09563 2.56309 7.10202 3.5567C6.10841 4.55031 5.5502 5.89794 5.5502 7.30312C5.5502 11.2759 4.30424 12.5625 3.13244 13.7723Z" stroke="#4B5563" stroke-width="2.11929" stroke-linecap="round" stroke-linejoin="round"/>
</g>
<defs>
<clipPath id="clip0_224_1429">
<rect width="21.1929" height="21.1929" fill="white" transform="translate(0.251953 0.23877)"/>
</clipPath>
</defs>
</svg>
