<svg width="24" height="25" viewBox="0 0 24 25" fill="none" xmlns="http://www.w3.org/2000/svg">
<path d="M12.22 2.40527H11.78C11.2496 2.40527 10.7409 2.61599 10.3658 2.99106C9.99072 3.36613 9.78 3.87484 9.78 4.40527V4.58527C9.77964 4.936 9.68706 5.28046 9.51154 5.58411C9.33602 5.88776 9.08374 6.13991 8.78 6.31527L8.35 6.56527C8.04596 6.74081 7.70108 6.83322 7.35 6.83322C6.99893 6.83322 6.65404 6.74081 6.35 6.56527L6.2 6.48527C5.74107 6.22054 5.19584 6.14872 4.684 6.28558C4.17217 6.42245 3.73555 6.75681 3.47 7.21527L3.25 7.59527C2.98526 8.05421 2.91345 8.59944 3.05031 9.11127C3.18717 9.62311 3.52154 10.0597 3.98 10.3253L4.13 10.4253C4.43228 10.5998 4.68362 10.8504 4.85905 11.1521C5.03448 11.4538 5.1279 11.7962 5.13 12.1453V12.6553C5.1314 13.0077 5.03965 13.3542 4.86405 13.6598C4.68844 13.9653 4.43521 14.2191 4.13 14.3953L3.98 14.4853C3.52154 14.7508 3.18717 15.1874 3.05031 15.6993C2.91345 16.2111 2.98526 16.7563 3.25 17.2153L3.47 17.5953C3.73555 18.0537 4.17217 18.3881 4.684 18.525C5.19584 18.6618 5.74107 18.59 6.2 18.3253L6.35 18.2453C6.65404 18.0697 6.99893 17.9773 7.35 17.9773C7.70108 17.9773 8.04596 18.0697 8.35 18.2453L8.78 18.4953C9.08374 18.6706 9.33602 18.9228 9.51154 19.2264C9.68706 19.5301 9.77964 19.8745 9.78 20.2253V20.4053C9.78 20.9357 9.99072 21.4444 10.3658 21.8195C10.7409 22.1946 11.2496 22.4053 11.78 22.4053H12.22C12.7504 22.4053 13.2591 22.1946 13.6342 21.8195C14.0093 21.4444 14.22 20.9357 14.22 20.4053V20.2253C14.2204 19.8745 14.3129 19.5301 14.4885 19.2264C14.664 18.9228 14.9163 18.6706 15.22 18.4953L15.65 18.2453C15.954 18.0697 16.2989 17.9773 16.65 17.9773C17.0011 17.9773 17.346 18.0697 17.65 18.2453L17.8 18.3253C18.2589 18.59 18.8042 18.6618 19.316 18.525C19.8278 18.3881 20.2645 18.0537 20.53 17.5953L20.75 17.2053C21.0147 16.7463 21.0866 16.2011 20.9497 15.6893C20.8128 15.1774 20.4785 14.7408 20.02 14.4753L19.87 14.3953C19.5648 14.2191 19.3116 13.9653 19.136 13.6598C18.9604 13.3542 18.8686 13.0077 18.87 12.6553V12.1553C18.8686 11.8029 18.9604 11.4563 19.136 11.1508C19.3116 10.8452 19.5648 10.5915 19.87 10.4153L20.02 10.3253C20.4785 10.0597 20.8128 9.62311 20.9497 9.11127C21.0866 8.59944 21.0147 8.05421 20.75 7.59527L20.53 7.21527C20.2645 6.75681 19.8278 6.42245 19.316 6.28558C18.8042 6.14872 18.2589 6.22054 17.8 6.48527L17.65 6.56527C17.346 6.74081 17.0011 6.83322 16.65 6.83322C16.2989 6.83322 15.954 6.74081 15.65 6.56527L15.22 6.31527C14.9163 6.13991 14.664 5.88776 14.4885 5.58411C14.3129 5.28046 14.2204 4.936 14.22 4.58527V4.40527C14.22 3.87484 14.0093 3.36613 13.6342 2.99106C13.2591 2.61599 12.7504 2.40527 12.22 2.40527Z" stroke="#4B5563" stroke-width="2.11929" stroke-linecap="round" stroke-linejoin="round"/>
<path d="M12 15.4053C13.6569 15.4053 15 14.0621 15 12.4053C15 10.7484 13.6569 9.40527 12 9.40527C10.3431 9.40527 9 10.7484 9 12.4053C9 14.0621 10.3431 15.4053 12 15.4053Z" stroke="#4B5563" stroke-width="2.11929" stroke-linecap="round" stroke-linejoin="round"/>
</svg>
