<svg width="22" height="23" viewBox="0 0 22 23" fill="none" xmlns="http://www.w3.org/2000/svg">
<path d="M7.96163 3.48242H3.53845C3.04987 3.48242 2.65381 3.87849 2.65381 4.36706V10.5595C2.65381 11.0481 3.04987 11.4442 3.53845 11.4442H7.96163C8.4502 11.4442 8.84627 11.0481 8.84627 10.5595V4.36706C8.84627 3.87849 8.4502 3.48242 7.96163 3.48242Z" stroke="#4B5563" stroke-width="2.12313" stroke-linecap="round" stroke-linejoin="round"/>
<path d="M17.6928 3.48242H13.2696C12.7811 3.48242 12.385 3.87849 12.385 4.36706V7.02097C12.385 7.50954 12.7811 7.90561 13.2696 7.90561H17.6928C18.1814 7.90561 18.5775 7.50954 18.5775 7.02097V4.36706C18.5775 3.87849 18.1814 3.48242 17.6928 3.48242Z" stroke="#4B5563" stroke-width="2.12313" stroke-linecap="round" stroke-linejoin="round"/>
<path d="M17.6928 11.4443H13.2696C12.7811 11.4443 12.385 11.8404 12.385 12.329V18.5214C12.385 19.01 12.7811 19.4061 13.2696 19.4061H17.6928C18.1814 19.4061 18.5775 19.01 18.5775 18.5214V12.329C18.5775 11.8404 18.1814 11.4443 17.6928 11.4443Z" stroke="#4B5563" stroke-width="2.12313" stroke-linecap="round" stroke-linejoin="round"/>
<path d="M7.96163 14.9829H3.53845C3.04987 14.9829 2.65381 15.379 2.65381 15.8675V18.5215C2.65381 19.01 3.04987 19.4061 3.53845 19.4061H7.96163C8.4502 19.4061 8.84627 19.01 8.84627 18.5215V15.8675C8.84627 15.379 8.4502 14.9829 7.96163 14.9829Z" stroke="#4B5563" stroke-width="2.12313" stroke-linecap="round" stroke-linejoin="round"/>
</svg>
