<svg width="22" height="22" viewBox="0 0 22 22" fill="none" xmlns="http://www.w3.org/2000/svg">
<path d="M14.154 19.3493V17.5801C14.154 16.6416 13.7811 15.7415 13.1175 15.0779C12.4539 14.4143 11.5539 14.0415 10.6154 14.0415H5.30759C4.36911 14.0415 3.46907 14.4143 2.80546 15.0779C2.14185 15.7415 1.76904 16.6416 1.76904 17.5801V19.3493" stroke="#4B5563" stroke-width="2.12313" stroke-linecap="round" stroke-linejoin="round"/>
<path d="M14.1543 3.53906C14.9131 3.73578 15.5851 4.17889 16.0648 4.79884C16.5446 5.41879 16.8048 6.18049 16.8048 6.96438C16.8048 7.74826 16.5446 8.50996 16.0648 9.12991C15.5851 9.74986 14.9131 10.193 14.1543 10.3897" stroke="#4B5563" stroke-width="2.12313" stroke-linecap="round" stroke-linejoin="round"/>
<path d="M19.4623 19.3496V17.5803C19.4617 16.7963 19.2007 16.0346 18.7204 15.415C18.24 14.7953 17.5675 14.3527 16.8083 14.1567" stroke="#4B5563" stroke-width="2.12313" stroke-linecap="round" stroke-linejoin="round"/>
<path d="M7.96164 10.5029C9.91593 10.5029 11.5002 8.91861 11.5002 6.96433C11.5002 5.01004 9.91593 3.42578 7.96164 3.42578C6.00736 3.42578 4.4231 5.01004 4.4231 6.96433C4.4231 8.91861 6.00736 10.5029 7.96164 10.5029Z" stroke="#4B5563" stroke-width="2.12313" stroke-linecap="round" stroke-linejoin="round"/>
</svg>
