<svg width="22" height="22" viewBox="0 0 22 22" fill="none" xmlns="http://www.w3.org/2000/svg">
<g clip-path="url(#clip0_224_1761)">
<path d="M15.9056 1.80811H5.30173C4.32567 1.80811 3.53442 2.59935 3.53442 3.57541V17.7138C3.53442 18.6899 4.32567 19.4812 5.30173 19.4812H15.9056C16.8816 19.4812 17.6729 18.6899 17.6729 17.7138V3.57541C17.6729 2.59935 16.8816 1.80811 15.9056 1.80811Z" stroke="#4B5563" stroke-width="2.12077" stroke-linecap="round" stroke-linejoin="round"/>
<path d="M7.95264 19.4814V15.9468H13.2546V19.4814" stroke="#4B5563" stroke-width="2.12077" stroke-linecap="round" stroke-linejoin="round"/>
<path d="M7.06934 5.34277H7.07767" stroke="#4B5563" stroke-width="2.12077" stroke-linecap="round" stroke-linejoin="round"/>
<path d="M14.1382 5.34277H14.1465" stroke="#4B5563" stroke-width="2.12077" stroke-linecap="round" stroke-linejoin="round"/>
<path d="M10.6038 5.34277H10.6121" stroke="#4B5563" stroke-width="2.12077" stroke-linecap="round" stroke-linejoin="round"/>
<path d="M10.6038 8.87744H10.6121" stroke="#4B5563" stroke-width="2.12077" stroke-linecap="round" stroke-linejoin="round"/>
<path d="M10.6038 12.4121H10.6121" stroke="#4B5563" stroke-width="2.12077" stroke-linecap="round" stroke-linejoin="round"/>
<path d="M14.1382 8.87744H14.1465" stroke="#4B5563" stroke-width="2.12077" stroke-linecap="round" stroke-linejoin="round"/>
<path d="M14.1382 12.4121H14.1465" stroke="#4B5563" stroke-width="2.12077" stroke-linecap="round" stroke-linejoin="round"/>
<path d="M7.06934 8.87744H7.07767" stroke="#4B5563" stroke-width="2.12077" stroke-linecap="round" stroke-linejoin="round"/>
<path d="M7.06934 12.4121H7.07767" stroke="#4B5563" stroke-width="2.12077" stroke-linecap="round" stroke-linejoin="round"/>
</g>
<defs>
<clipPath id="clip0_224_1761">
<rect width="21.2077" height="21.2077" fill="white" transform="translate(0 0.0410156)"/>
</clipPath>
</defs>
</svg>
