<svg width="25" height="26" viewBox="0 0 25 26" fill="none" xmlns="http://www.w3.org/2000/svg">
<path d="M13.1103 3.10358C12.7197 2.71285 12.1899 2.49328 11.6374 2.49316H4.16658C3.61405 2.49316 3.08415 2.71266 2.69345 3.10336C2.30275 3.49406 2.08325 4.02396 2.08325 4.5765V12.0473C2.08337 12.5998 2.30294 13.1296 2.69367 13.5202L11.7603 22.5869C12.2338 23.0574 12.8741 23.3214 13.5416 23.3214C14.209 23.3214 14.8494 23.0574 15.3228 22.5869L22.177 15.7327C22.6475 15.2593 22.9115 14.6189 22.9115 13.9515C22.9115 13.284 22.6475 12.6437 22.177 12.1702L13.1103 3.10358Z" stroke="#2563EB" stroke-width="2.1198" stroke-linecap="round" stroke-linejoin="round"/>
<path d="M7.81307 8.64421C8.10072 8.64421 8.3339 8.41102 8.3339 8.12337C8.3339 7.83572 8.10072 7.60254 7.81307 7.60254C7.52542 7.60254 7.29224 7.83572 7.29224 8.12337C7.29224 8.41102 7.52542 8.64421 7.81307 8.64421Z" fill="black" stroke="#2563EB" stroke-width="2.1198" stroke-linecap="round" stroke-linejoin="round"/>
</svg>
