<svg width="22" height="22" viewBox="0 0 22 22" fill="none" xmlns="http://www.w3.org/2000/svg">
<g clip-path="url(#clip0_224_1804)">
<path d="M9.31909 18.7827C9.4741 19.0512 9.69705 19.2741 9.96552 19.4291C10.234 19.5841 10.5385 19.6657 10.8485 19.6657C11.1585 19.6657 11.463 19.5841 11.7315 19.4291C12 19.2741 12.2229 19.0512 12.3779 18.7827" stroke="#4B5563" stroke-width="2.11929" stroke-linecap="round" stroke-linejoin="round"/>
<path d="M3.13257 13.7723C3.01721 13.8987 2.94108 14.0559 2.91345 14.2248C2.88581 14.3937 2.90785 14.567 2.97689 14.7236C3.04593 14.8802 3.159 15.0134 3.30234 15.1069C3.44567 15.2005 3.6131 15.2503 3.78425 15.2505H17.9129C18.084 15.2505 18.2515 15.2009 18.3949 15.1075C18.5383 15.0142 18.6515 14.8811 18.7208 14.7246C18.79 14.5681 18.8122 14.3949 18.7848 14.226C18.7574 14.057 18.6815 13.8997 18.5663 13.7731C17.3919 12.5625 16.1468 11.2759 16.1468 7.30312C16.1468 5.89794 15.5886 4.55031 14.595 3.5567C13.6014 2.56309 12.2537 2.00488 10.8486 2.00488C9.44338 2.00488 8.09575 2.56309 7.10214 3.5567C6.10853 4.55031 5.55033 5.89794 5.55033 7.30312C5.55033 11.2759 4.30436 12.5625 3.13257 13.7723Z" stroke="#4B5563" stroke-width="2.11929" stroke-linecap="round" stroke-linejoin="round"/>
</g>
<defs>
<clipPath id="clip0_224_1804">
<rect width="21.1929" height="21.1929" fill="white" transform="translate(0.251953 0.23877)"/>
</clipPath>
</defs>
</svg>
